subject_06
version=1
nRows=246
nColumns=3
inDegrees=yes
endheader
time	r_shoulder_elev	r_elbow_flex
27.9300	15.949024	44.484367
27.9400	15.949024	45.240897
27.9500	15.949024	45.598854
27.9600	15.949024	45.717065
27.9700	15.949024	45.840990
27.9800	15.949024	46.210740
27.9900	15.949024	46.976588
28.0000	15.949024	48.152331
28.0100	15.949024	49.619842
28.0200	15.949024	51.177963
28.0300	15.949024	52.613797
28.0400	15.949024	53.769507
28.0500	15.949024	54.583463
28.0600	15.949024	55.096841
28.0700	15.949024	55.429840
28.0800	15.949024	55.740292
28.0900	15.949024	56.179603
28.1000	15.949024	56.857505
28.1100	15.949024	57.821320
28.1200	15.949024	59.050349
28.1300	15.949024	60.463423
28.1400	15.949024	61.937194
28.1500	15.949024	63.332791
28.1600	15.949024	64.527482
28.1700	15.949024	65.445730
28.1800	15.949024	66.081760
28.1900	15.949024	66.505536
28.2000	15.949024	66.847422
28.2100	15.949024	67.263294
28.2200	15.949024	67.889389
28.2300	15.949024	68.801234
28.2400	15.949024	69.990870
28.2500	15.949024	71.370750
28.2600	15.949024	72.802979
28.2700	15.949024	74.143154
28.2800	15.949024	75.282900
28.2900	15.949024	76.176573
28.3000	15.949024	76.844849
28.3100	15.949024	77.357605
28.3200	15.949024	77.806186
28.3300	15.949024	78.277494
28.3400	15.949024	78.838638
28.3500	15.949024	79.533562
28.3600	15.949024	80.386215
28.3700	15.949024	81.402257
28.3800	15.949024	82.564288
28.3900	15.949024	83.822401
28.4000	15.949024	85.088319
28.4100	15.949024	86.243246
28.4200	15.949024	87.164834
28.4300	15.949024	87.768826
28.4400	15.949024	88.050732
28.4500	15.949024	88.107908
28.4600	15.949024	88.126436
28.4700	15.949024	88.329940
28.4800	15.949024	88.904076
28.4900	15.949024	89.923632
28.5000	15.949024	91.312260
28.5100	15.949024	92.855157
28.5200	15.949024	94.265351
28.5300	15.949024	95.282369
28.5400	15.949024	95.767219
28.5500	15.949024	95.756710
28.5600	15.949024	95.454374
28.5700	15.949024	95.159475
28.5800	15.949024	95.159977
28.5900	15.949024	95.629901
28.6000	15.949024	96.569952
28.6100	15.949024	97.813236
28.6200	15.949024	99.092238
28.6300	15.949024	100.139576
28.6400	15.949024	100.782996
28.6500	15.949024	100.999140
28.6600	15.949024	100.908580
28.6700	15.949024	100.718556
28.6800	15.949024	100.639604
28.6900	15.949024	100.810179
28.7000	15.949024	101.256954
28.7100	15.949024	101.901586
28.7200	15.949024	102.605253
28.7300	15.949024	103.228528
28.7400	15.949024	103.681252
28.7500	15.949024	103.944936
28.7600	15.949024	104.064179
28.7700	15.949024	104.116735
28.7800	15.949024	104.178628
28.7900	15.949024	104.299130
28.8000	15.949024	104.492603
28.8100	15.949024	104.744999
28.8200	15.949024	105.026977
28.8300	15.949024	105.305343
28.8400	15.949024	105.548983
28.8500	15.949024	105.730978
28.8600	15.949024	105.831520
28.8700	15.949024	105.844722
28.8800	15.949024	105.787601
28.8900	15.949024	105.704842
28.9000	15.949024	105.662067
28.9100	15.949024	105.724835
28.9200	15.949024	105.928802
28.9300	15.949024	106.253968
28.9400	15.949024	106.618007
28.9500	15.949024	106.897696
28.9600	15.949024	106.975118
28.9700	15.949024	106.791890
28.9800	15.949024	106.387158
28.9900	15.949024	105.898327
29.0000	15.949024	105.517691
29.0100	15.949024	105.417856
29.0200	15.949024	105.675303
29.0300	15.949024	106.226279
29.0400	15.949024	106.878510
29.0500	15.949024	107.379486
29.0600	15.949024	107.518099
29.0700	15.949024	107.216965
29.0800	15.949024	106.574515
29.0900	15.949024	105.834858
29.1000	15.949024	105.293478
29.1100	15.949024	105.175625
29.1200	15.949024	105.538482
29.1300	15.949024	106.240664
29.1400	15.949024	106.995361
29.1500	15.949024	107.487657
29.1600	15.949024	107.507713
29.1700	15.949024	107.042730
29.1800	15.949024	106.286574
29.1900	15.949024	105.560585
29.2000	15.949024	105.177615
29.2100	15.949024	105.306945
29.2200	15.949024	105.898728
29.2300	15.949024	106.701919
29.2400	15.949024	107.369273
29.2500	15.949024	107.604902
29.2600	15.949024	107.292940
29.2700	15.949024	106.549462
29.2800	15.949024	105.674872
29.2900	15.949024	105.026800
29.3000	15.949024	104.867803
29.3100	15.949024	105.253194
29.3200	15.949024	106.007076
29.3300	15.949024	106.796473
29.3400	15.949024	107.271214
29.3500	15.949024	107.209250
29.3600	15.949024	106.605560
29.3700	15.949024	105.668040
29.3800	15.949024	104.724438
29.3900	15.949024	104.082468
29.4000	15.949024	103.904135
29.4100	15.949024	104.147146
29.4200	15.949024	104.595375
29.4300	15.949024	104.960887
29.4400	15.949024	105.009655
29.4500	15.949024	104.655035
29.4600	15.949024	103.980120
29.4700	15.949024	103.183746
29.4800	15.949024	102.479459
29.4900	15.949024	101.996513
29.5000	15.949024	101.728432
29.5100	15.949024	101.550289
29.5200	15.949024	101.292563
29.5300	15.949024	100.832991
29.5400	15.949024	100.160468
29.5500	15.949024	99.379776
29.5600	15.949024	98.655439
29.5700	15.949024	98.122997
29.5800	15.949024	97.812193
29.5900	15.949024	97.621241
29.6000	15.949024	97.356995
29.6100	15.949024	96.823969
29.6200	15.949024	95.920869
29.6300	15.949024	94.698276
29.6400	15.949024	93.347956
29.6500	15.949024	92.125518
29.6600	15.949024	91.239361
29.6700	15.949024	90.755558
29.6800	15.949024	90.562517
29.6900	15.949024	90.413255
29.7000	15.949024	90.028474
29.7100	15.949024	89.216017
29.7200	15.949024	87.954265
29.7300	15.949024	86.402405
29.7400	15.949024	84.832507
29.7500	15.949024	83.512799
29.7600	15.949024	82.593013
29.7700	15.949024	82.041744
29.7800	15.949024	81.662825
29.7900	15.949024	81.183030
29.8000	15.949024	80.372367
29.8100	15.949024	79.144329
29.8200	15.949024	77.592760
29.8300	15.949024	75.949977
29.8400	15.949024	74.485096
29.8500	15.949024	73.387049
29.8600	15.949024	72.682752
29.8700	15.949024	72.224995
29.8800	15.949024	71.754367
29.8900	15.949024	71.008083
29.9000	15.949024	69.829493
29.9100	15.949024	68.232910
29.9200	15.949024	66.398168
29.9300	15.949024	64.598966
29.9400	15.949024	63.095744
29.9500	15.949024	62.036743
29.9600	15.949024	61.405434
29.9700	15.949024	61.032129
29.9800	15.949024	60.661543
29.9900	15.949024	60.047250
30.0000	15.949024	59.036351
30.0100	15.949024	57.614783
30.0200	15.949024	55.901338
30.0300	15.949024	54.098367
30.0400	15.949024	52.421337
30.0500	15.949024	51.033336
30.0600	15.949024	50.004399
30.0700	15.949024	49.303592
30.0800	15.949024	48.819724
30.0900	15.949024	48.398999
30.1000	15.949024	47.886452
30.1100	15.949024	47.161182
30.1200	15.949024	46.160159
30.1300	15.949024	44.889066
30.1400	15.949024	43.420162
30.1500	15.949024	41.877394
30.1600	15.949024	40.409729
30.1700	15.949024	39.156030
30.1800	15.949024	38.208514
30.1900	15.949024	37.584855
30.2000	15.949024	37.218987
30.2100	15.949024	36.976323
30.2200	15.949024	36.691190
30.2300	15.949024	36.215790
30.2400	15.949024	35.464641
30.2500	15.949024	34.439132
30.2600	15.949024	33.223712
30.2700	15.949024	31.955793
30.2800	15.949024	30.781181
30.2900	15.949024	29.811640
30.3000	15.949024	29.098903
30.3100	15.949024	28.631501
30.3200	15.949024	28.350893
30.3300	15.949024	28.176306
30.3400	15.949024	28.026470
30.3500	15.949024	27.831204
30.3600	15.949024	27.533450
30.3700	15.949024	27.088562
30.3800	15.949024	26.468678
